<svg width="367" height="74" viewBox="0 0 367 74" fill="none" xmlns="http://www.w3.org/2000/svg">
<path d="M149.204 52.4263H24.7223V0.482422H0.0908203V56.0061C0.0908203 65.8961 8.11177 73.9147 18.0043 73.9147H155.025C164.915 73.9147 172.936 65.8961 172.936 56.0061V0.482422H149.204V52.4263Z" fill="#C40452"/>
<path d="M36.2339 7.80908H43.264L49.1291 35.2122H49.5779L54.4135 7.80908H63.9515L69.0557 35.2122H69.5033L75.1458 7.80908H81.8178L73.7569 40.274H64.4439L59.295 12.8237H58.8462L53.9211 40.274H44.5174L36.2339 7.80908Z" fill="#C40452"/>
<path d="M84.375 7.80908H90.868V12.958H84.375V7.80908ZM84.4198 17.7052H90.8244V40.274H84.4198V17.7052Z" fill="#C40452"/>
<path d="M97.8544 13.4902L104.259 12.3252V17.6979H112.005V22.3992H104.259V31.6227C104.259 32.1913 104.281 32.7272 104.326 33.2353C104.369 33.7434 104.489 34.1911 104.684 34.5794C104.878 34.969 105.176 35.2811 105.58 35.5194C105.982 35.759 106.527 35.8775 107.213 35.8775C108.138 35.8775 108.975 35.7807 109.721 35.586C110.466 35.3924 111.183 35.1153 111.87 34.7572L112.856 38.9673C110.556 40.1904 107.99 40.8014 105.153 40.8014C103.66 40.8014 102.444 40.6151 101.504 40.2425C100.564 39.8698 99.8251 39.3472 99.2868 38.6758C98.7496 38.0043 98.383 37.1829 98.1907 36.2126C97.9959 35.2424 97.8991 34.1608 97.8991 32.9655V22.398H94.0483V18.2338L97.8531 17.7862V13.4878L97.8544 13.4902Z" fill="#C40452"/>
<path d="M115.976 6.86514L122.38 6.01465V18.9558C122.678 18.807 122.976 18.657 123.276 18.507C123.574 18.3594 123.887 18.2239 124.216 18.1054C125.022 17.8065 125.842 17.5827 126.679 17.4339C127.514 17.2851 128.305 17.2101 129.052 17.2101C130.514 17.2101 131.716 17.3976 132.657 17.7702C133.597 18.1441 134.352 18.674 134.918 19.3599C135.485 20.0471 135.881 20.8685 136.105 21.8231C136.327 22.7788 136.44 23.8543 136.44 25.0472V40.2737H130.036V26.436C130.036 25.8698 130.013 25.3327 129.97 24.8246C129.924 24.3165 129.797 23.8688 129.589 23.4805C129.378 23.0921 129.066 22.7788 128.649 22.5405C128.23 22.3021 127.663 22.1824 126.947 22.1824C125.901 22.1824 125.005 22.3154 124.26 22.584C123.483 22.9131 122.856 23.2422 122.38 23.57V40.2737H115.976V6.86514Z" fill="#C40452"/>
<path d="M186.336 38.0478H210.077C211.628 38.0478 213.237 38.0043 214.903 37.9123C216.569 37.8216 218.211 37.6498 219.83 37.3994C221.447 37.1489 223.034 36.7945 224.585 36.3384C226.134 35.8823 227.571 35.2665 228.898 34.4898V5.54663H238.34V54.9499C238.34 57.0949 238.225 59.3741 237.996 61.7949C237.77 64.2097 237.495 66.3099 237.175 68.0883H228.898V41.6772C227.71 42.4527 226.433 43.0806 225.066 43.5572C223.696 44.0363 222.269 44.4114 220.789 44.6884C219.305 44.9606 217.81 45.1566 216.307 45.2679C214.801 45.3828 213.364 45.4397 211.996 45.4397H211.103V54.3341C211.103 55.3842 211.07 56.4791 211.003 57.6175C210.934 58.7583 210.855 59.8871 210.765 61.0061C210.671 62.1228 210.546 63.2068 210.387 64.2569C210.225 65.3045 210.077 66.2615 209.941 67.1301H201.662V45.4397H186.336V38.049V38.0478ZM189.688 19.9843C189.688 18.2047 189.984 16.4832 190.578 14.8173C191.17 13.1526 192.127 11.6936 193.454 10.4378C194.776 9.18328 196.484 8.18036 198.584 7.42666C200.68 6.67416 203.214 6.29792 206.178 6.29792C209.142 6.29792 211.743 6.67416 213.844 7.42666C215.939 8.17915 217.652 9.18328 218.974 10.4378C220.297 11.6936 221.266 13.1526 221.881 14.8173C222.497 16.4832 222.807 18.2047 222.807 19.9843C222.807 21.764 222.497 23.5532 221.881 25.2179C221.266 26.8838 220.297 28.3428 218.974 29.5974C217.652 30.8532 215.939 31.8452 213.844 32.5747C211.743 33.3054 209.189 33.6684 206.178 33.6684C203.167 33.6684 200.68 33.3042 198.584 32.5747C196.484 31.8452 194.776 30.8532 193.454 29.5974C192.127 28.3428 191.17 26.8838 190.578 25.2179C189.984 23.5532 189.688 21.8087 189.688 19.9843ZM198.857 19.9843C198.857 22.2188 199.463 23.9428 200.67 25.1502C201.877 26.3588 203.739 26.9637 206.247 26.9637C208.755 26.9637 210.684 26.3588 211.891 25.1502C213.098 23.9428 213.704 22.2201 213.704 19.9843C213.704 17.7486 213.098 16.1069 211.891 14.9201C210.684 13.7345 208.8 13.1405 206.247 13.1405C203.695 13.1405 201.877 13.7333 200.67 14.9201C199.463 16.1069 198.857 17.7946 198.857 19.9843Z" fill="#6D6E71"/>
<path d="M248.262 49.8847H304.712V57.6165H248.262V49.8847ZM256.266 8.00879H296.706V15.6051H265.707V28.8112C265.707 29.2686 265.764 29.5529 265.879 29.6666C265.994 29.7815 266.279 29.8372 266.735 29.8372H296.706V37.4323H261.057C259.46 37.4323 258.262 37.0221 257.465 36.2007C256.665 35.3792 256.267 34.3303 256.267 33.0528V8.00879H256.266Z" fill="#6D6E71"/>
<path d="M310.187 38.7341H366.637V46.5361H353.225V55.1559C353.225 56.206 353.191 57.3009 353.125 58.4393C353.053 59.5801 352.972 60.7089 352.881 61.8279C352.791 62.9446 352.666 64.0285 352.509 65.0786C352.347 66.1263 352.199 67.0833 352.06 67.9519H343.712V46.5349H333.451V55.0192C333.451 56.0693 333.417 57.1642 333.348 58.3026C333.279 59.441 333.198 60.5818 333.107 61.7227C333.017 62.8635 332.892 63.9584 332.732 65.0085C332.573 66.0562 332.425 67.0155 332.286 67.8817H323.938V46.5349H310.188V38.7329L310.187 38.7341ZM319.287 20.0536C319.287 18.0926 319.628 16.2222 320.313 14.4426C320.997 12.663 322.103 11.089 323.632 9.72076C325.159 8.35248 327.131 7.25762 329.551 6.43616C331.965 5.61471 334.911 5.20459 338.376 5.20459C341.841 5.20459 344.81 5.61471 347.273 6.43616C349.736 7.25882 351.731 8.35248 353.258 9.72076C354.784 11.089 355.902 12.663 356.614 14.4426C357.32 16.2222 357.673 18.0926 357.673 20.0536C357.673 22.0147 357.32 23.9649 356.614 25.7675C355.902 27.5701 354.786 29.144 353.258 30.4893C351.731 31.8358 349.735 32.9077 347.273 33.705C344.81 34.5034 341.841 34.9027 338.376 34.9027C334.911 34.9027 331.965 34.5034 329.551 33.705C327.131 32.9077 325.159 31.8346 323.632 30.4893C322.103 29.144 320.997 27.5701 320.313 25.7675C319.628 23.9661 319.287 22.0619 319.287 20.0536ZM329.14 20.0536C329.14 22.6087 329.904 24.4779 331.432 25.6647C332.959 26.8515 335.274 27.4443 338.376 27.4443C341.478 27.4443 343.875 26.8527 345.425 25.6647C346.974 24.4791 347.75 22.6087 347.75 20.0536C347.75 15.356 344.626 13.0054 338.375 13.0054C332.124 13.0054 329.139 15.356 329.139 20.0536H329.14Z" fill="#6D6E71"/>
</svg>
