<svg width="39" height="21" viewBox="0 0 39 21" fill="none" xmlns="http://www.w3.org/2000/svg">
<path d="M19.4866 11.183L8.90373 3.07542C8.24652 2.57183 8.12213 1.63135 8.62571 0.974137C9.1293 0.316925 10.0698 0.19253 10.727 0.696118L19.4866 7.40762L28.2461 0.696118C28.9034 0.19253 29.8438 0.317675 30.3474 0.974137C30.851 1.63135 30.7266 2.57183 30.0694 3.07542L19.4866 11.183Z" fill="white"/>
<path d="M19.4873 21L1.50725 7.22477C0.850039 6.72118 0.72564 5.7807 1.22923 5.12349C1.73282 4.46628 2.6733 4.34188 3.33051 4.84547L19.4873 17.2238L35.644 4.84547C36.3013 4.34188 37.2417 4.46703 37.7453 5.12349C38.2489 5.7807 38.1245 6.72118 37.4673 7.22477L19.4873 21Z" fill="white"/>
</svg>
