<svg width="138" height="139" viewBox="0 0 138 139" fill="none" xmlns="http://www.w3.org/2000/svg">
<path d="M22.7346 101.711C7.39087 80.0542 9.33033 50.1479 27.3469 30.6011C48.5168 7.62939 84.4319 6.16357 107.405 27.3374L106.727 28.0718C84.1604 7.27392 48.8811 8.7124 28.0813 31.2788C10.384 50.4809 8.47779 79.8589 23.551 101.133L22.7346 101.711Z" fill="white"/>
<path d="M122.181 46.3896L111.377 49.4834L110.087 47.3018L117.186 40.6816L117.109 40.5527L107.934 43.6602L106.629 41.4521L114.493 33.3867L115.455 35.0137L108.424 41.8369L108.485 41.9404L117.707 38.8232L119.028 41.0557L111.875 47.6729L111.951 47.8018L121.265 44.8389L122.181 46.3896Z" fill="white"/>
<path d="M122.548 48.6094L123.138 50.2305L112.917 53.9453L112.328 52.3242L122.548 48.6094Z" fill="white"/>
<path d="M125.701 59.8203L124.344 60.1426L123.579 56.917L114.355 59.1035L113.957 57.4248L123.182 55.2383L122.417 52.0137L123.774 51.6914L125.701 59.8203Z" fill="white"/>
<path d="M126.421 70.5195L115.559 71.0371L115.478 69.3281L120.227 69.1025L119.983 63.9785L115.233 64.2041L115.152 62.4805L126.015 61.9648L126.097 63.6875L121.377 63.9121L121.62 69.0361L126.34 68.8125L126.421 70.5195Z" fill="white"/>
<path d="M118.652 80.9805L114.113 79.9697L114.488 78.2861L119.012 79.293C119.248 79.2021 119.549 79.0928 119.915 78.9639C120.282 78.8359 120.685 78.6953 121.123 78.542C121.562 78.3887 122.018 78.2314 122.488 78.0693C122.96 77.9082 123.413 77.75 123.847 77.5957C124.28 77.4414 124.684 77.3008 125.055 77.1738C125.427 77.0459 125.724 76.9404 125.947 76.8574L125.511 78.8193L120.402 80.4326L120.373 80.5645L124.311 84.207L123.884 86.125L118.652 80.9805Z" fill="white"/>
<path d="M118.404 85.645C120.132 86.4106 121.248 87.3423 121.751 88.4399C122.255 89.5386 122.164 90.8599 121.479 92.4048C121.135 93.1821 120.725 93.7856 120.251 94.2153C119.776 94.645 119.242 94.9243 118.648 95.0552C118.054 95.186 117.408 95.1841 116.708 95.0483C116.007 94.9136 115.255 94.6675 114.45 94.311C112.722 93.5464 111.605 92.6108 111.099 91.5063C110.592 90.4019 110.684 89.0718 111.373 87.5181C111.721 86.7319 112.132 86.1255 112.604 85.7007C113.077 85.2759 113.609 85.0005 114.201 84.8745C114.793 84.7476 115.44 84.7563 116.142 84.8979C116.845 85.0395 117.599 85.2886 118.404 85.645ZM115.378 92.7534C115.898 92.9839 116.4 93.1626 116.884 93.2895C117.368 93.4165 117.824 93.4595 118.252 93.4194C118.678 93.3794 119.063 93.2378 119.406 92.9956C119.748 92.7534 120.03 92.3804 120.253 91.8784C120.496 91.3296 120.612 90.8315 120.603 90.3843C120.593 89.937 120.469 89.5269 120.231 89.1538C119.993 88.7798 119.645 88.4311 119.187 88.1089C118.73 87.7856 118.177 87.481 117.529 87.1938C117.009 86.9634 116.504 86.7856 116.012 86.6616C115.522 86.5366 115.065 86.4956 114.642 86.5386C114.219 86.5806 113.84 86.7183 113.502 86.9517C113.164 87.1841 112.885 87.5483 112.667 88.0415C112.416 88.6089 112.293 89.1196 112.298 89.5767C112.303 90.0327 112.425 90.4478 112.664 90.8208C112.902 91.1948 113.25 91.5376 113.707 91.8491C114.164 92.1606 114.72 92.4624 115.378 92.7534Z" fill="white"/>
<path d="M113.092 105.811L107.649 101.897C107.023 101.447 106.542 100.985 106.207 100.509C105.871 100.034 105.668 99.5464 105.597 99.0454C105.526 98.5445 105.579 98.0288 105.758 97.4986C105.937 96.9673 106.227 96.4224 106.63 95.8618C107.442 94.7339 108.322 94.1079 109.274 93.9849C110.224 93.8609 111.34 94.2613 112.623 95.1831L117.97 99.0279L116.962 100.428L111.409 96.4351C110.662 95.898 109.988 95.6255 109.384 95.6158C108.78 95.607 108.231 95.9478 107.735 96.6382C107.186 97.4009 106.989 98.0855 107.146 98.69C107.302 99.2954 107.838 99.9273 108.756 100.587L114.09 104.423L113.092 105.811Z" fill="white"/>
<path d="M88.7715 123.312L86.2539 112.359L88.501 111.187L94.7354 118.627L94.8682 118.558L92.251 109.229L94.5254 108.043L102.163 116.324L100.487 117.198L94.0459 109.816L93.9395 109.872L96.5645 119.246L94.2637 120.446L88.0352 112.953L87.9023 113.022L90.3672 122.479L88.7715 123.312Z" fill="white"/>
<path d="M86.5303 123.561L84.8809 124.062L81.7148 113.658L83.3652 113.156L86.5303 123.561Z" fill="white"/>
<path d="M75.1953 126.113L74.9453 124.741L78.207 124.147L76.5107 114.82L78.208 114.512L79.9043 123.839L83.165 123.246L83.415 124.618L75.1953 126.113Z" fill="white"/>
<path d="M64.3594 126.222L64.5352 115.348L66.2451 115.376L66.168 120.13L71.2979 120.213L71.375 115.459L73.0996 115.486L72.9229 126.36L71.1982 126.332L71.2754 121.608L66.1455 121.524L66.0693 126.249L64.3594 126.222Z" fill="white"/>
<path d="M54.4277 117.964L55.6768 113.484L57.3379 113.948L56.0928 118.413C56.1719 118.652 56.2646 118.959 56.373 119.332C56.4824 119.705 56.6016 120.114 56.7314 120.561C56.8613 121.007 56.9941 121.47 57.1309 121.949C57.2666 122.429 57.4004 122.889 57.5312 123.33C57.6631 123.771 57.7822 124.182 57.8896 124.56C57.9971 124.937 58.0859 125.239 58.1582 125.467L56.2217 124.927L54.8809 119.741L54.751 119.705L50.9043 123.443L49.0117 122.916L54.4277 117.964Z" fill="white"/>
<path d="M49.7767 117.466C48.9213 119.152 47.933 120.216 46.809 120.66C45.6859 121.106 44.3705 120.945 42.8646 120.18C42.1068 119.795 41.5258 119.354 41.1215 118.858C40.7182 118.361 40.4662 117.812 40.3666 117.212C40.268 116.613 40.3041 115.966 40.476 115.275C40.6488 114.582 40.934 113.844 41.3324 113.059C42.1889 111.374 43.181 110.308 44.3109 109.862C45.4408 109.414 46.7631 109.576 48.2787 110.346C49.0463 110.736 49.6293 111.177 50.0287 111.671C50.4281 112.166 50.6752 112.712 50.7689 113.31C50.8646 113.907 50.8217 114.553 50.6439 115.247C50.4642 115.942 50.1762 116.681 49.7767 117.466ZM42.8392 114.068C42.5814 114.575 42.3764 115.068 42.224 115.544C42.0717 116.021 42.0043 116.474 42.0219 116.903C42.0394 117.331 42.1605 117.723 42.3842 118.077C42.6078 118.432 42.9652 118.734 43.4555 118.983C43.9896 119.254 44.4818 119.398 44.9281 119.411C45.3754 119.426 45.7924 119.323 46.1771 119.106C46.5639 118.887 46.9291 118.558 47.2758 118.118C47.6225 117.679 47.9564 117.143 48.2767 116.511C48.5346 116.003 48.7396 115.508 48.8891 115.025C49.0394 114.541 49.1049 114.087 49.0844 113.663C49.0639 113.238 48.9467 112.852 48.7318 112.501C48.517 112.152 48.1693 111.855 47.6879 111.61C47.1351 111.329 46.6303 111.179 46.1752 111.16C45.7191 111.142 45.2982 111.241 44.9125 111.46C44.5267 111.678 44.1654 112.007 43.8305 112.447C43.4955 112.887 43.1644 113.427 42.8392 114.068Z" fill="white"/>
<path d="M29.9141 111.093L34.1094 105.863C34.5918 105.262 35.0791 104.807 35.5713 104.497C36.0645 104.187 36.5625 104.01 37.0654 103.965C37.5693 103.92 38.082 104.001 38.6016 104.207C39.123 104.413 39.6523 104.733 40.1895 105.164C41.2734 106.034 41.8525 106.947 41.9258 107.903C41.998 108.859 41.541 109.952 40.5508 111.185L36.4307 116.322L35.085 115.242L39.3652 109.907C39.9414 109.189 40.25 108.53 40.29 107.927C40.3311 107.325 40.0195 106.758 39.3574 106.227C38.623 105.638 37.9512 105.407 37.3379 105.531C36.7266 105.655 36.0664 106.157 35.3594 107.038L31.248 112.162L29.9141 111.093Z" fill="white"/>
</svg>
